<?xml version="1.0" standalone="no"?>
<!DOCTYPE svg PUBLIC "-//W3C//DTD SVG 20010904//EN"
 "http://www.w3.org/TR/2001/REC-SVG-20010904/DTD/svg10.dtd">
<svg version="1.0" xmlns="http://www.w3.org/2000/svg"
 width="512.000000pt" height="512.000000pt" viewBox="0 0 512.000000 512.000000"
 preserveAspectRatio="xMidYMid meet">

<g transform="translate(0.000000,512.000000) scale(0.100000,-0.100000)"
fill="#000000" stroke="none">
<path d="M1318 5071 c-194 -62 -328 -246 -328 -452 l0 -66 -87 -6 c-49 -3
-122 -16 -163 -27 -89 -25 -247 -99 -274 -129 -26 -28 -23 -81 5 -103 31 -26
63 -22 132 16 111 62 207 88 343 94 156 6 243 -12 384 -80 93 -45 115 -61 201
-147 86 -86 102 -108 147 -201 68 -141 86 -228 80 -384 -4 -96 -11 -138 -32
-201 -71 -209 -208 -366 -401 -460 -240 -117 -511 -107 -740 27 -90 53 -220
183 -273 273 -140 239 -145 524 -12 772 28 51 50 100 50 107 0 7 -9 25 -21 40
-15 19 -30 26 -55 26 -45 0 -67 -24 -121 -132 -80 -162 -113 -344 -93 -516 51
-434 385 -769 820 -822 46 -5 90 -10 97 -10 10 0 13 -22 13 -80 l0 -80 -85 0
c-222 0 -442 -91 -613 -254 -515 -489 -315 -1345 364 -1559 77 -24 269 -52
310 -45 18 3 19 -7 25 -137 4 -106 10 -154 26 -197 51 -138 172 -251 312 -292
49 -14 189 -16 1255 -16 985 0 1210 3 1252 14 129 34 238 125 301 252 l38 78
3 148 c2 81 6 148 8 148 3 0 48 5 101 11 328 36 599 230 743 530 66 139 83
220 83 394 0 173 -16 249 -82 391 -142 302 -436 507 -761 532 l-85 7 -3 76 -3
77 73 7 c418 39 744 317 845 721 26 103 23 333 -5 436 -109 401 -449 676 -867
701 l-40 2 -6 97 c-5 86 -10 106 -43 173 -62 125 -171 217 -300 251 -42 11
-266 14 -1256 13 -1141 0 -1208 -1 -1262 -18z m473 -461 c11 -68 51 -121 116
-154 30 -15 98 -16 691 -14 l659 3 40 28 c45 31 78 84 88 140 l7 38 155 -3
c149 -3 156 -4 174 -27 15 -19 19 -39 19 -105 l-1 -81 -52 -32 c-71 -43 -179
-143 -239 -222 -63 -84 -131 -223 -159 -326 -29 -107 -32 -335 -6 -439 58
-231 196 -431 388 -562 l69 -48 0 -192 0 -192 -77 -55 c-43 -30 -111 -89 -150
-131 -81 -85 -92 -119 -51 -163 41 -43 68 -32 170 70 177 175 354 245 593 235
346 -16 639 -258 721 -594 25 -100 23 -277 -4 -375 -93 -346 -395 -579 -749
-579 -123 0 -221 20 -319 65 -253 116 -419 339 -455 614 -12 85 -7 164 17 296
12 68 -77 114 -125 66 -50 -50 -63 -344 -22 -496 58 -217 204 -422 383 -542
l68 -45 0 -133 c0 -116 -2 -136 -19 -156 l-19 -24 -1105 -3 -1106 -2 -28 24
-28 24 -3 149 -3 150 53 40 c167 126 294 315 350 518 30 113 30 345 0 457 -55
202 -179 387 -344 515 l-58 44 0 207 0 208 68 44 c174 114 313 303 379 517 24
80 27 103 27 253 1 181 -12 250 -74 386 -67 148 -197 300 -332 390 l-70 47 4
79 c3 73 6 82 31 104 28 24 33 24 175 22 l147 -3 6 -35z m2560 -224 c260 -55
478 -245 569 -493 110 -302 33 -620 -203 -839 -91 -85 -162 -128 -269 -165
-301 -102 -606 -27 -825 205 -62 65 -91 106 -126 178 -68 138 -82 198 -81 358
1 123 3 143 31 228 43 129 101 222 197 317 114 112 234 178 380 210 81 18 245
18 327 1z m-3259 -2021 c411 -87 679 -489 604 -905 -52 -288 -251 -513 -529
-599 -106 -33 -230 -44 -328 -31 -190 26 -326 94 -464 234 -76 76 -98 106
-137 186 -68 139 -83 200 -82 355 0 93 5 149 18 194 76 278 288 488 566 560
91 24 255 27 352 6z"/>
<path d="M2424 3210 c-242 -63 -428 -250 -491 -493 -20 -78 -20 -242 1 -317
l15 -55 -44 -128 c-51 -146 -51 -171 2 -217 42 -38 66 -38 176 -1 l88 30 62
-39 c34 -21 98 -51 142 -67 73 -25 92 -28 215 -27 119 0 144 3 208 26 107 38
176 83 262 168 54 54 87 98 117 155 62 121 77 181 77 315 1 197 -57 336 -198
475 -93 93 -184 145 -302 175 -99 26 -233 26 -330 0z m290 -145 c95 -25 166
-66 237 -135 182 -179 208 -447 65 -663 -48 -73 -113 -128 -198 -172 -89 -44
-163 -59 -268 -52 -99 6 -171 30 -261 89 -79 51 -125 58 -196 29 -29 -11 -53
-18 -53 -14 0 3 15 48 32 98 l32 93 -16 68 c-26 105 -29 147 -18 226 27 200
186 380 381 432 71 19 191 20 263 1z"/>
<path d="M2403 2805 c-35 -25 -65 -120 -61 -192 5 -87 39 -133 148 -200 109
-67 160 -80 233 -59 96 28 189 132 168 188 -13 34 -37 51 -72 51 -23 0 -40
-11 -72 -45 -60 -64 -75 -67 -153 -23 -37 21 -75 46 -85 56 -23 23 -24 73 -4
109 47 82 -28 167 -102 115z"/>
<path d="M3954 1981 c-17 -11 -36 -34 -43 -52 -7 -21 -11 -137 -11 -341 0
-331 2 -347 52 -382 48 -34 76 -23 361 140 150 86 282 167 295 181 27 30 30
98 4 130 -14 18 -430 265 -549 326 -42 22 -71 21 -109 -2z m304 -283 c104 -60
170 -104 164 -110 -13 -13 -353 -208 -363 -208 -5 0 -9 97 -9 216 0 202 1 216
17 209 10 -3 96 -52 191 -107z"/>
<path d="M4185 4141 c-22 -10 -54 -34 -72 -52 -53 -57 -63 -93 -63 -239 l0
-130 -75 0 c-88 0 -115 -17 -115 -74 0 -54 36 -76 121 -76 l69 0 0 -250 c0
-237 1 -251 20 -270 28 -28 81 -26 108 3 21 23 22 30 22 270 l0 247 69 0 c85
0 121 22 121 75 0 56 -30 75 -117 75 l-73 0 0 120 c0 115 1 122 25 145 23 24
31 25 133 25 95 0 113 3 136 21 33 26 36 79 6 109 -18 18 -33 20 -147 20 -103
0 -136 -4 -168 -19z"/>
<path d="M968 2055 c-77 -28 -150 -109 -164 -180 -6 -32 -6 -33 -42 -23 -60
16 -109 45 -167 98 -47 42 -61 50 -95 50 -57 0 -88 -31 -106 -105 -39 -166 -1
-325 103 -436 l45 -48 -36 -6 c-53 -10 -86 -49 -86 -99 0 -61 30 -103 98 -134
49 -23 73 -27 174 -30 144 -5 232 12 348 69 152 73 269 218 317 391 9 35 31
83 49 108 39 55 74 149 74 196 0 47 -26 90 -66 109 -40 19 -59 19 -118 -1 -46
-16 -48 -16 -84 8 -74 49 -167 61 -244 33z m172 -167 c39 -29 50 -32 111 -32
l68 1 -16 -31 c-9 -17 -28 -47 -43 -66 -14 -19 -37 -71 -49 -115 -12 -44 -34
-100 -48 -125 -86 -147 -245 -231 -438 -230 l-80 1 35 18 c63 31 79 45 89 74
16 43 -4 73 -71 109 -108 57 -173 160 -166 262 l3 46 46 -30 c66 -44 153 -71
240 -77 69 -5 79 -3 98 16 13 13 21 34 21 54 0 136 100 198 200 125z"/>
<path d="M594 4121 c-57 -26 -111 -92 -124 -155 -8 -34 -11 -160 -8 -377 l3
-326 30 -49 c19 -30 49 -60 79 -79 l49 -30 326 -3 c375 -4 411 0 474 56 76 70
77 72 77 467 0 386 -2 397 -66 457 -61 56 -72 58 -451 58 -316 0 -352 -2 -389
-19z m733 -153 l23 -21 0 -324 c0 -303 -1 -324 -19 -342 -17 -17 -42 -20 -222
-26 -112 -4 -259 -6 -325 -4 -179 6 -164 -29 -164 375 0 333 0 333 22 348 19
14 69 16 342 16 314 0 320 0 343 -22z"/>
<path d="M912 3838 c-51 -17 -118 -83 -138 -133 -24 -64 -16 -141 22 -202 56
-90 182 -129 279 -84 214 98 157 409 -79 426 -28 2 -66 -1 -84 -7z m102 -149
c33 -15 50 -57 37 -92 -19 -49 -79 -62 -118 -25 -37 35 -26 99 20 118 30 12
32 12 61 -1z"/>
</g>
</svg>
